<svg xmlns="http://www.w3.org/2000/svg" xmlns:xlink="http://www.w3.org/1999/xlink" width="625.777" height="540.444" viewBox="0 0 469.333 405.333"><clipPath id="a"><path transform="matrix(1 0 0 -1 -98.667 772)" d="M0 0h595.276v841.89H0z"/></clipPath><g clip-path="url(#a)"><symbol id="b"><path d="M.083 0c.022 0 .028 0 .028.014.002.701.083 1.283.433 1.772.007.009.007.011.007.013 0 .01-.007.01-.023.01s-.018 0-.02-.002a1.752 1.752 0 0 1-.232-.35A2.646 2.646 0 0 1 .024.526C.021.495 0 .287 0 .05V.011C.001 0 .007 0 .028 0h.055z"/></symbol><symbol id="c"><path d="M.111.593C.111.619.11.62.083.62H.028C.001.62 0 .619 0 .593V.027C0 .001.001 0 .028 0h.055C.11 0 .111.001.111.027v.566z"/></symbol><symbol id="d"><path d="M.028 1.809c-.021 0-.027 0-.028-.011v-.039C0 1.148.109.79.14.689A1.97 1.97 0 0 1 .486.027C.501.009.505.004.509.002.511.001.512 0 .528 0s.023 0 .023.01c0 .002 0 .004-.006.013C.212.485.112 1.041.111 1.795c0 .014-.006.014-.028.014H.028z"/></symbol><use xlink:href="#b" transform="matrix(24.7871 0 0 -24.7871 26.017 71.881)"/><use xlink:href="#c" transform="matrix(24.7871 0 0 -24.7871 26.017 86.754)"/><use xlink:href="#c" transform="matrix(24.7871 0 0 -24.7871 26.017 101.626)"/><use xlink:href="#c" transform="matrix(24.7871 0 0 -24.7871 26.017 116.5)"/><use xlink:href="#c" transform="matrix(24.7871 0 0 -24.7871 26.017 131.371)"/><use xlink:href="#c" transform="matrix(24.7871 0 0 -24.7871 26.017 146.243)"/><use xlink:href="#c" transform="matrix(24.7871 0 0 -24.7871 26.017 161.116)"/><use xlink:href="#c" transform="matrix(24.7871 0 0 -24.7871 26.017 175.988)"/><use xlink:href="#c" transform="matrix(24.7871 0 0 -24.7871 26.017 190.861)"/><use xlink:href="#c" transform="matrix(24.7871 0 0 -24.7871 26.017 205.733)"/><use xlink:href="#c" transform="matrix(24.7871 0 0 -24.7871 26.017 220.605)"/><use xlink:href="#c" transform="matrix(24.7871 0 0 -24.7871 26.017 235.478)"/><use xlink:href="#c" transform="matrix(24.7871 0 0 -24.7871 26.017 250.35)"/><use xlink:href="#c" transform="matrix(24.7871 0 0 -24.7871 26.017 265.222)"/><use xlink:href="#c" transform="matrix(24.7871 0 0 -24.7871 26.017 280.095)"/><use xlink:href="#c" transform="matrix(24.7871 0 0 -24.7871 26.017 294.967)"/><use xlink:href="#c" transform="matrix(24.7871 0 0 -24.7871 26.017 309.84)"/><use xlink:href="#c" transform="matrix(24.7871 0 0 -24.7871 26.017 324.712)"/><use xlink:href="#d" transform="matrix(24.7871 0 0 -24.7871 26.017 369.057)"/><path stroke-width=".398" stroke-miterlimit="10" fill="none" stroke="#000" d="M45.474 30.856h109.059M45.673 126.697V31.056"/><symbol id="e"><path d="M.256.634C.231.705.152.705.139.705c-.006 0-.017 0-.017-.01 0-.008.006-.009.011-.01C.148.683.16.681.176.652.186.633.289.334.289.332L.28.322.02.059C.008.047 0 .039 0 .026 0 .012.012 0 .028 0c.004 0 .015.002.021.008.016.015.159.19.25.298C.325.228.357.136.388.052A.09.09 0 0 1 .412.01C.422.001.424.001.452.001h.019c.004 0 .011 0 .011.008 0 .004-.001.005-.005.009a.141.141 0 0 0-.02.041L.256.634z"/></symbol><use xlink:href="#e" transform="matrix(24.7871 0 0 -24.7871 55.157 55.239)"/><symbol id="f"><path d="M.179.639C.179.66.178.661.164.661.125.614.066.599.01.597c-.003 0-.008 0-.009-.002L0 .57C.031.57.083.576.123.6V.073C.123.038.121.026.035.026h-.03V0a7.108 7.108 0 0 0 .292 0v.026h-.03C.181.026.179.037.179.073v.566z"/></symbol><use xlink:href="#f" transform="matrix(20.6625 0 0 -20.6625 69.799 59.747)"/><use xlink:href="#f" transform="matrix(24.7871 0 0 -24.7871 96.476 54.966)"/><use xlink:href="#e" transform="matrix(24.7871 0 0 -24.7871 89.252 85.126)"/><use xlink:href="#f" transform="matrix(20.6625 0 0 -20.6625 103.893 89.635)"/><use xlink:href="#f" transform="matrix(24.7871 0 0 -24.7871 130.57 84.853)"/><use xlink:href="#e" transform="matrix(24.7871 0 0 -24.7871 123.346 115.014)"/><use xlink:href="#f" transform="matrix(20.6625 0 0 -20.6625 137.988 119.523)"/><path stroke-width=".398" stroke-miterlimit="10" fill="none" stroke="#000" d="M154.334 126.697V31.056M45.474 126.896h109.059M164.496 139.07h74.964M164.695 205.023V139.27"/><use xlink:href="#e" transform="matrix(24.7871 0 0 -24.7871 174.178 163.453)"/><symbol id="g"><path d="M.376.155H.358C.348.084.34.072.336.066.331.058.259.058.245.058H.053c.036.039.106.11.191.192.061.058.132.126.132.225 0 .118-.094.186-.199.186C.067.661 0 .564 0 .474 0 .435.029.43.041.43c.01 0 .04.006.04.041 0 .031-.026.04-.04.04A.038.038 0 0 1 .025.508c.019.085.077.127.138.127.087 0 .144-.069.144-.16C.307.388.256.313.199.248L0 .023V0h.352l.024.155z"/></symbol><use xlink:href="#g" transform="matrix(20.6625 0 0 -20.6625 187.87 167.961)"/><use xlink:href="#f" transform="matrix(24.7871 0 0 -24.7871 215.497 163.18)"/><use xlink:href="#e" transform="matrix(24.7871 0 0 -24.7871 208.273 193.34)"/><use xlink:href="#g" transform="matrix(20.6625 0 0 -20.6625 221.964 197.849)"/><path stroke-width=".398" stroke-miterlimit="10" fill="none" stroke="#000" d="M239.26 205.023V139.27M164.496 205.222h74.964M259.385 223.695h30.907M259.584 251.867v-27.972"/><use xlink:href="#e" transform="matrix(24.7871 0 0 -24.7871 264.086 244.369)"/><symbol id="h"><path d="M.188.356C.277.356.316.279.316.19.316.07.252.024.194.024.141.024.055.05.028.127.033.125.038.125.043.125c.024 0 .042.016.042.042 0 .029-.022.042-.042.042C.026.209 0 .201 0 .164 0 .072.09 0 .196 0c.111 0 .196.087.196.189 0 .097-.08.167-.175.178.076.016.149.084.149.175C.366.62.287.677.197.677.106.677.026.621.026.541.026.506.052.5.065.5.086.5.104.513.104.539c0 .026-.018.039-.039.039-.004 0-.009 0-.013-.002.029.066.108.078.143.078C.23.654.296.637.296.541A.198.198 0 0 0 .258.419C.228.38.194.378.161.375L.129.373C.122.372.118.371.118.364c0-.007.001-.008.021-.008h.049z"/></symbol><use xlink:href="#h" transform="matrix(20.6625 0 0 -20.6625 277.612 249.209)"/><path stroke-width=".398" stroke-miterlimit="10" fill="none" stroke="#000" d="M290.092 251.867v-27.972M259.385 252.066h30.907"/><symbol id="i"><path d="M.082.041a.04.04 0 0 1-.041.041A.041.041 0 0 1 0 .041.04.04 0 0 1 .041 0c.02 0 .041.016.041.041z"/></symbol><use xlink:href="#i" transform="matrix(24.7871 0 0 -24.7871 303.713 274.981)"/><use xlink:href="#i" transform="matrix(24.7871 0 0 -24.7871 312.655 277.969)"/><use xlink:href="#i" transform="matrix(24.7871 0 0 -24.7871 321.597 280.958)"/><path stroke-width=".398" stroke-miterlimit="10" fill="none" stroke="#000" d="M337.043 299.09h80.165M337.242 365.043V299.29"/><use xlink:href="#e" transform="matrix(24.7871 0 0 -24.7871 346.725 323.473)"/><symbol id="j"><path d="M.179.303a.281.281 0 0 0 .064.088c.026.024.06.04.099.04.04 0 .054-.03.054-.07A.906.906 0 0 0 .335.136C.326.112.321.099.321.081.321.036.352 0 .4 0c.093 0 .128.147.128.153 0 .005-.004.009-.01.009-.009 0-.01-.003-.015-.02C.48.06.442.02.403.02.393.02.377.021.377.053c0 .025.011.055.017.069.02.055.062.167.062.224 0 .06-.035.105-.111.105C.256.451.209.388.191.363.188.42.147.451.103.451.071.451.049.432.032.398A.466.466 0 0 1 0 .298C0 .294.004.289.011.289.019.289.02.29.026.313.042.374.06.431.1.431.123.431.131.415.131.385.131.363.121.324.114.293L.086.185a1.965 1.965 0 0 0-.02-.082.975.975 0 0 1-.018-.078C.048.011.059 0 .074 0 .086 0 .1.006.108.021l.016.06.022.09.033.132z"/></symbol><use xlink:href="#j" transform="matrix(20.6625 0 0 -20.6625 360.127 327.125)"/><use xlink:href="#f" transform="matrix(24.7871 0 0 -24.7871 391.945 323.2)"/><use xlink:href="#e" transform="matrix(24.7871 0 0 -24.7871 383.42 353.36)"/><use xlink:href="#j" transform="matrix(20.6625 0 0 -20.6625 396.823 357.013)"/><path stroke-width=".398" stroke-miterlimit="10" fill="none" stroke="#000" d="M417.009 365.043V299.29M337.043 365.242h80.165"/><symbol id="k"><path d="M.551.05c0 .611-.109.969-.14 1.07a1.97 1.97 0 0 1-.346.662c-.015.018-.019.023-.023.025-.002.001-.003.002-.019.002-.015 0-.023 0-.023-.01 0-.002 0-.004.013-.022C.361 1.291.439.691.44.014.44 0 .446 0 .468 0h.055C.544 0 .55 0 .551.011V.05z"/></symbol><symbol id="l"><path d="M.111.593C.111.619.11.62.083.62H.028C.001.62 0 .619 0 .593V.027C0 .001.001 0 .028 0h.055C.11 0 .111.001.111.027v.566z"/></symbol><symbol id="m"><path d="M.551 1.798c-.001.011-.007.011-.028.011H.468c-.022 0-.028 0-.028-.014 0-.103-.001-.341-.027-.59C.359.688.226.33.007.023 0 .014 0 .012 0 .01 0 0 .008 0 .023 0c.016 0 .018 0 .02.002.004.003.131.149.232.35.132.264.215.567.252.931.003.031.024.239.024.476v.039z"/></symbol><use xlink:href="#k" transform="matrix(24.7871 0 0 -24.7871 422.982 71.881)"/><use xlink:href="#l" transform="matrix(24.7871 0 0 -24.7871 433.889 86.754)"/><use xlink:href="#l" transform="matrix(24.7871 0 0 -24.7871 433.889 101.626)"/><use xlink:href="#l" transform="matrix(24.7871 0 0 -24.7871 433.889 116.5)"/><use xlink:href="#l" transform="matrix(24.7871 0 0 -24.7871 433.889 131.371)"/><use xlink:href="#l" transform="matrix(24.7871 0 0 -24.7871 433.889 146.243)"/><use xlink:href="#l" transform="matrix(24.7871 0 0 -24.7871 433.889 161.116)"/><use xlink:href="#l" transform="matrix(24.7871 0 0 -24.7871 433.889 175.988)"/><use xlink:href="#l" transform="matrix(24.7871 0 0 -24.7871 433.889 190.861)"/><use xlink:href="#l" transform="matrix(24.7871 0 0 -24.7871 433.889 205.733)"/><use xlink:href="#l" transform="matrix(24.7871 0 0 -24.7871 433.889 220.605)"/><use xlink:href="#l" transform="matrix(24.7871 0 0 -24.7871 433.889 235.478)"/><use xlink:href="#l" transform="matrix(24.7871 0 0 -24.7871 433.889 250.35)"/><use xlink:href="#l" transform="matrix(24.7871 0 0 -24.7871 433.889 265.222)"/><use xlink:href="#l" transform="matrix(24.7871 0 0 -24.7871 433.889 280.095)"/><use xlink:href="#l" transform="matrix(24.7871 0 0 -24.7871 433.889 294.967)"/><use xlink:href="#l" transform="matrix(24.7871 0 0 -24.7871 433.889 309.84)"/><use xlink:href="#l" transform="matrix(24.7871 0 0 -24.7871 433.889 324.712)"/><use xlink:href="#m" transform="matrix(24.7871 0 0 -24.7871 422.982 369.057)"/></g></svg>